<?xml version="1.0" encoding="utf-8"?>
<!-- Generator: Adobe Illustrator 16.0.4, SVG Export Plug-In . SVG Version: 6.00 Build 0)  -->
<!DOCTYPE svg PUBLIC "-//W3C//DTD SVG 1.1//EN" "http://www.w3.org/Graphics/SVG/1.1/DTD/svg11.dtd">
<svg version="1.1" id="Layer_1" xmlns="http://www.w3.org/2000/svg" xmlns:xlink="http://www.w3.org/1999/xlink" x="0px" y="0px"
	 width="40px" height="40px" viewBox="0 0 40 40" enable-background="new 0 0 40 40" xml:space="preserve">
<rect fill="none" width="40" height="40"/>
<path fill="#FFFFFF" d="M20,4L20,4c0.884,0,1.6,0.896,1.6,2v4c0,1.104-0.716,2-1.6,2l0,0c-0.884,0-1.6-0.896-1.6-2V6
	C18.4,4.896,19.116,4,20,4z">
<animate  fill="remove" restart="always" calcMode="linear" additive="replace" accumulate="none" dur="1s" to="0" attributeName="opacity" repeatCount="indefinite" from="1" begin="0s">
		</animate>
</path>
<path fill="#FFFFFF" d="M28,6.144L28,6.144c0.766,0.442,0.938,1.576,0.386,2.532l-2,3.464c-0.552,0.957-1.62,1.374-2.386,0.932l0,0
	c-0.766-0.442-0.938-1.576-0.386-2.532l2-3.464C26.166,6.119,27.234,5.702,28,6.144z">
<animate  fill="remove" restart="always" calcMode="linear" additive="replace" accumulate="none" dur="1s" to="0" attributeName="opacity" repeatCount="indefinite" from="1" begin="0.08333333333333333s">
		</animate>
</path>
<path fill="#FFFFFF" d="M33.856,12L33.856,12c0.442,0.765,0.024,1.833-0.933,2.386l-3.463,2c-0.957,0.552-2.091,0.379-2.533-0.386
	l0,0c-0.441-0.765-0.023-1.833,0.933-2.386l3.464-2C32.281,11.062,33.414,11.235,33.856,12z">
<animate  fill="remove" restart="always" calcMode="linear" additive="replace" accumulate="none" dur="1s" to="0" attributeName="opacity" repeatCount="indefinite" from="1" begin="0.16666666666666666s">
		</animate>
</path>
<path fill="#FFFFFF" d="M36,20L36,20c0,0.884-0.896,1.6-2,1.6h-4c-1.104,0-2-0.716-2-1.6l0,0c0-0.884,0.896-1.6,2-1.6h4
	C35.104,18.4,36,19.116,36,20z">
<animate  fill="remove" restart="always" calcMode="linear" additive="replace" accumulate="none" dur="1s" to="0" attributeName="opacity" repeatCount="indefinite" from="1" begin="0.25s">
		</animate>
</path>
<path fill="#FFFFFF" d="M33.856,28L33.856,28c-0.442,0.766-1.575,0.938-2.532,0.386l-3.464-2c-0.956-0.552-1.374-1.62-0.933-2.386
	l0,0c0.442-0.766,1.576-0.938,2.533-0.386l3.463,2C33.881,26.166,34.299,27.234,33.856,28z">
<animate  fill="remove" restart="always" calcMode="linear" additive="replace" accumulate="none" dur="1s" to="0" attributeName="opacity" repeatCount="indefinite" from="1" begin="0.3333333333333333s">
		</animate>
</path>
<path fill="#FFFFFF" d="M28,33.856L28,33.856c-0.766,0.442-1.834,0.024-2.386-0.933l-2-3.463c-0.552-0.957-0.38-2.091,0.386-2.533
	l0,0c0.766-0.441,1.834-0.023,2.386,0.933l2,3.464C28.938,32.281,28.766,33.414,28,33.856z">
<animate  fill="remove" restart="always" calcMode="linear" additive="replace" accumulate="none" dur="1s" to="0" attributeName="opacity" repeatCount="indefinite" from="1" begin="0.4166666666666667s">
		</animate>
</path>
<path fill="#FFFFFF" d="M20,36L20,36c-0.884,0-1.6-0.896-1.6-2v-4c0-1.104,0.716-2,1.6-2l0,0c0.884,0,1.6,0.896,1.6,2v4
	C21.6,35.104,20.884,36,20,36z">
<animate  fill="remove" restart="always" calcMode="linear" additive="replace" accumulate="none" dur="1s" to="0" attributeName="opacity" repeatCount="indefinite" from="1" begin="0.5s">
		</animate>
</path>
<path fill="#FFFFFF" d="M12,33.856L12,33.856c-0.765-0.442-0.938-1.575-0.386-2.532l2-3.464c0.552-0.956,1.621-1.374,2.386-0.933
	l0,0c0.765,0.442,0.938,1.576,0.386,2.533l-2,3.463C13.833,33.881,12.765,34.299,12,33.856z">
<animate  fill="remove" restart="always" calcMode="linear" additive="replace" accumulate="none" dur="1s" to="0" attributeName="opacity" repeatCount="indefinite" from="1" begin="0.5833333333333334s">
		</animate>
</path>
<path fill="#FFFFFF" d="M6.144,28L6.144,28c-0.442-0.766-0.024-1.834,0.932-2.386l3.464-2c0.957-0.552,2.09-0.38,2.532,0.386l0,0
	c0.442,0.766,0.024,1.834-0.932,2.386l-3.464,2C7.719,28.938,6.585,28.766,6.144,28z">
<animate  fill="remove" restart="always" calcMode="linear" additive="replace" accumulate="none" dur="1s" to="0" attributeName="opacity" repeatCount="indefinite" from="1" begin="0.6666666666666666s">
		</animate>
</path>
<path fill="#FFFFFF" d="M4,20L4,20c0-0.884,0.896-1.6,2-1.6h4c1.104,0,2,0.716,2,1.6l0,0c0,0.884-0.896,1.6-2,1.6H6
	C4.896,21.6,4,20.884,4,20z">
<animate  fill="remove" restart="always" calcMode="linear" additive="replace" accumulate="none" dur="1s" to="0" attributeName="opacity" repeatCount="indefinite" from="1" begin="0.75s">
		</animate>
</path>
<path fill="#FFFFFF" d="M6.144,12L6.144,12c0.442-0.765,1.576-0.938,2.532-0.386l3.464,2c0.957,0.552,1.374,1.621,0.932,2.386l0,0
	c-0.442,0.765-1.576,0.938-2.532,0.386l-3.464-2C6.119,13.833,5.702,12.765,6.144,12z">
<animate  fill="remove" restart="always" calcMode="linear" additive="replace" accumulate="none" dur="1s" to="0" attributeName="opacity" repeatCount="indefinite" from="1" begin="0.8333333333333334s">
		</animate>
</path>
<path fill="#FFFFFF" d="M12,6.144L12,6.144c0.765-0.442,1.833-0.024,2.386,0.932l2,3.464c0.552,0.957,0.379,2.09-0.386,2.532l0,0
	c-0.765,0.442-1.833,0.024-2.386-0.932l-2-3.464C11.062,7.719,11.235,6.585,12,6.144z">
<animate  fill="remove" restart="always" calcMode="linear" additive="replace" accumulate="none" dur="1s" to="0" attributeName="opacity" repeatCount="indefinite" from="1" begin="0.9166666666666666s">
		</animate>
</path>
</svg>
